<svg width="170" height="233" viewBox="0 0 170 233" fill="none" xmlns="http://www.w3.org/2000/svg">
<g clip-path="url(#clip0_169_120)">
<rect width="170" height="225" fill="#37FF79"/>
<path d="M80.0061 12.1065L70.6066 21.5061L61.2071 12.1065H80.0061Z" fill="#EF89D9" stroke="black"/>
<path d="M56.0061 12.1065L46.6066 21.5061L37.2071 12.1065H56.0061Z" fill="#EF89D9" stroke="black"/>
<path d="M32.0061 12.1065L22.6066 21.5061L13.2071 12.1065H32.0061Z" fill="#EF89D9" stroke="black"/>
<rect x="24.7071" y="23.6066" width="14" height="14" transform="rotate(-45 24.7071 23.6066)" fill="#EF89D9" stroke="black"/>
<rect x="12.7071" y="35.6066" width="14" height="14" transform="rotate(-45 12.7071 35.6066)" fill="#EF89D9" stroke="black"/>
<path d="M20.5061 23.6066L11.1065 33.0061V14.207L20.5061 23.6066Z" fill="#EF89D9" stroke="black"/>
<rect x="36.7071" y="35.6066" width="14" height="14" transform="rotate(-45 36.7071 35.6066)" fill="#EF89D9" stroke="black"/>
<rect x="24.7071" y="47.6066" width="14" height="14" transform="rotate(-45 24.7071 47.6066)" fill="#EF89D9" stroke="black"/>
<rect x="12.7071" y="59.6066" width="14" height="14" transform="rotate(-45 12.7071 59.6066)" fill="#EF89D9" stroke="black"/>
<path d="M20.5061 47.6066L11.1065 57.0061V38.207L20.5061 47.6066Z" fill="#EF89D9" stroke="black"/>
<path d="M20.5061 71.6066L11.1065 81.0061V62.207L20.5061 71.6066Z" fill="#EF89D9" stroke="black"/>
<rect x="48.7071" y="23.6066" width="14" height="14" transform="rotate(-45 48.7071 23.6066)" fill="#EF89D9" stroke="black"/>
<path d="M60 11.6066H70.6066H81.2132L70.6066 22.2132L60 11.6066Z" fill="white"/>
<path d="M36 11.6066H46.6066H57.2132L46.6066 22.2132L36 11.6066Z" fill="white"/>
<path d="M12 11.6066H22.6066H33.2132L22.6066 22.2132L12 11.6066Z" fill="white"/>
<rect x="24" y="23.6066" width="15" height="15" transform="rotate(-45 24 23.6066)" fill="white"/>
<rect x="12" y="35.6066" width="15" height="15" transform="rotate(-45 12 35.6066)" fill="white"/>
<path d="M10.6066 24.5L10.6066 13L21.2132 23.6066L10.6066 34.2132L10.6066 24.5Z" fill="white"/>
<rect x="36" y="35.6066" width="15" height="15" transform="rotate(-45 36 35.6066)" fill="white"/>
<rect x="24" y="47.6066" width="15" height="15" transform="rotate(-45 24 47.6066)" fill="white"/>
<rect x="12" y="59.6066" width="15" height="15" transform="rotate(-45 12 59.6066)" fill="white"/>
<path d="M10.6066 46.5V37L21.2132 47.6066L10.6066 58.2132V46.5Z" fill="white"/>
<path d="M10.6066 70.5V61L21.2132 71.6066L10.6066 82.2132V70.5Z" fill="white"/>
<rect x="48" y="23.6066" width="15" height="15" transform="rotate(-45 48 23.6066)" fill="white"/>
<path d="M80.0061 160.107L70.6066 150.707L61.2071 160.107H80.0061Z" fill="white" stroke="white"/>
<path d="M56.0061 160.107L46.6066 150.707L37.2071 160.107H56.0061Z" fill="white" stroke="white"/>
<path d="M32.0061 160.107L22.6066 150.707L13.2071 160.107H32.0061Z" fill="white" stroke="white"/>
<rect x="0.707107" width="14" height="14" transform="matrix(0.707107 0.707107 0.707107 -0.707107 24.2071 148.107)" fill="white" stroke="white"/>
<rect x="0.707107" width="14" height="14" transform="matrix(0.707107 0.707107 0.707107 -0.707107 12.2071 136.107)" fill="white" stroke="white"/>
<path d="M20.5061 148.607L11.1065 139.207V158.006L20.5061 148.607Z" fill="white" stroke="white"/>
<rect x="0.707107" width="14" height="14" transform="matrix(0.707107 0.707107 0.707107 -0.707107 36.2071 136.107)" fill="white" stroke="white"/>
<rect x="0.707107" width="14" height="14" transform="matrix(0.707107 0.707107 0.707107 -0.707107 24.2071 124.107)" fill="white" stroke="white"/>
<rect x="0.707107" width="14" height="14" transform="matrix(0.707107 0.707107 0.707107 -0.707107 12.2071 112.107)" fill="white" stroke="white"/>
<path d="M20.5061 124.607L11.1065 115.207V134.006L20.5061 124.607Z" fill="white" stroke="white"/>
<path d="M20.5061 100.607L11.1065 91.207V110.006L20.5061 100.607Z" fill="white" stroke="white"/>
<rect x="0.707107" width="14" height="14" transform="matrix(0.707107 0.707107 0.707107 -0.707107 48.2071 148.107)" fill="white" stroke="white"/>
<path d="M91.207 160.107L100.607 150.707L110.006 160.107H91.207Z" fill="white" stroke="white"/>
<path d="M115.207 160.107L124.607 150.707L134.006 160.107H115.207Z" fill="white" stroke="white"/>
<path d="M139.207 160.107L148.607 150.707L158.006 160.107H139.207Z" fill="white" stroke="white"/>
<rect x="146.506" y="148.607" width="14" height="14" transform="rotate(135 146.506 148.607)" fill="white" stroke="white"/>
<rect x="158.506" y="136.607" width="14" height="14" transform="rotate(135 158.506 136.607)" fill="white" stroke="white"/>
<path d="M150.707 148.607L160.107 139.207V158.006L150.707 148.607Z" fill="white" stroke="white"/>
<rect x="134.506" y="136.607" width="14" height="14" transform="rotate(135 134.506 136.607)" fill="white" stroke="white"/>
<rect x="146.506" y="124.607" width="14" height="14" transform="rotate(135 146.506 124.607)" fill="white" stroke="white"/>
<rect x="158.506" y="112.607" width="14" height="14" transform="rotate(135 158.506 112.607)" fill="white" stroke="white"/>
<path d="M150.707 124.607L160.107 115.207V134.006L150.707 124.607Z" fill="white" stroke="white"/>
<path d="M150.707 100.607L160.107 91.207V110.006L150.707 100.607Z" fill="white" stroke="white"/>
<rect x="122.506" y="148.607" width="14" height="14" transform="rotate(135 122.506 148.607)" fill="white" stroke="white"/>
<path d="M91.207 12.1065L100.607 21.5061L110.006 12.1065H91.207Z" fill="white" stroke="white"/>
<path d="M115.207 12.1065L124.607 21.5061L134.006 12.1065H115.207Z" fill="white" stroke="white"/>
<path d="M139.207 12.1065L148.607 21.5061L158.006 12.1065H139.207Z" fill="white" stroke="white"/>
<rect x="-0.707107" width="14" height="14" transform="matrix(-0.707107 -0.707107 -0.707107 0.707107 146.006 23.1066)" fill="white" stroke="white"/>
<rect x="-0.707107" width="14" height="14" transform="matrix(-0.707107 -0.707107 -0.707107 0.707107 158.006 35.1066)" fill="white" stroke="white"/>
<path d="M150.707 23.6066L160.107 33.0061V14.207L150.707 23.6066Z" fill="white" stroke="white"/>
<rect x="-0.707107" width="14" height="14" transform="matrix(-0.707107 -0.707107 -0.707107 0.707107 134.006 35.1066)" fill="white" stroke="white"/>
<rect x="-0.707107" width="14" height="14" transform="matrix(-0.707107 -0.707107 -0.707107 0.707107 146.006 47.1066)" fill="white" stroke="white"/>
<rect x="-0.707107" width="14" height="14" transform="matrix(-0.707107 -0.707107 -0.707107 0.707107 158.006 59.1066)" fill="white" stroke="white"/>
<path d="M150.707 47.6066L160.107 57.0061V38.207L150.707 47.6066Z" fill="white" stroke="white"/>
<path d="M150.707 71.6066L160.107 81.0061V62.207L150.707 71.6066Z" fill="white" stroke="white"/>
<rect x="-0.707107" width="14" height="14" transform="matrix(-0.707107 -0.707107 -0.707107 0.707107 122.006 23.1066)" fill="white" stroke="white"/>
<path d="M60.4453 45.6016C75.1546 33.9388 95.9904 34.0561 110.567 45.8838L120.248 53.7383C130.553 62.0999 132.94 76.8649 125.795 88.0479C121.001 95.5506 112.712 100.091 103.809 100.091H66.0898C57.2498 100.091 49.0195 95.583 44.2598 88.1338C37.1055 76.9368 39.5833 62.1421 49.9951 53.8867L60.4453 45.6016Z" fill="white" stroke="#37FF79"/>
<path d="M39.9115 79.8067C39.2856 77.7967 40.9809 75.8251 43.0619 76.1426L44.4388 76.3526L45.8383 78.8575C49.2486 84.9639 57.8023 84.3686 60.7279 78.6944L62.0267 81.4005C63.8028 85.1019 69.0853 85.0655 70.8099 81.3399L72.6801 77.2979L75.1254 81.4542C77.2818 85.1195 82.7382 84.5955 84.1586 80.587C84.4595 79.739 85.6377 79.6826 86.0179 80.4981L86.4095 81.3389C88.3956 85.5999 94.5055 85.4481 96.2777 81.0938L97.9633 76.9503L101.143 81.0274C103.186 83.647 107.232 83.3607 108.885 80.4796C109.812 78.8638 112.13 78.8252 113.11 80.4092L113.48 81.0079C115.097 83.6217 118.686 84.1328 120.969 82.0743L127.26 76.3995L127.791 76.3116C129.996 75.9421 131.817 78.0275 131.152 80.1622L115.606 130.079C115.215 131.333 114.055 132.187 112.742 132.187H58.432C57.1189 132.187 55.9583 131.333 55.5677 130.079L39.9115 79.8067Z" fill="white" stroke="#37FF79" stroke-width="4"/>
<path d="M86.1741 27.1998C92.0846 27.1999 96.9133 32.1038 96.9133 38.1989C96.9131 44.2936 92.0844 49.1968 86.1741 49.1969C80.2637 49.1969 75.4351 44.2937 75.4348 38.1989C75.4348 32.1038 80.2635 27.1998 86.1741 27.1998Z" fill="white" stroke="#37FF79" stroke-width="2"/>
<path d="M58.8415 56.9237C59.4366 56.3154 61.3901 54.8501 63.3974 53.7037C64.3945 53.1342 65.344 52.6793 66.095 52.4486C66.4729 52.3325 66.748 52.2899 66.9269 52.2922C66.9355 52.2923 66.9438 52.2947 66.9514 52.295C66.9517 52.3029 66.9541 52.3112 66.9542 52.3201C66.9565 52.5029 66.9155 52.7847 66.8019 53.1711C66.5761 53.9386 66.1304 54.9085 65.5733 55.9276C64.4516 57.9793 63.0187 59.9766 62.4235 60.5849C61.4344 61.5956 59.8305 61.5951 58.8415 60.5842C57.8527 59.5733 57.8527 57.9346 58.8415 56.9237Z" fill="white" stroke="#37FF79" stroke-width="2"/>
<path d="M70.0132 64.3372C70.4352 63.5902 71.9521 61.6571 73.6011 60.0183C74.4204 59.2041 75.223 58.5129 75.8909 58.0908C76.227 57.8785 76.4824 57.7643 76.6559 57.7192C76.6606 57.718 76.6659 57.7186 76.6703 57.7175C76.6717 57.722 76.6748 57.7262 76.6761 57.7311C76.7247 57.9072 76.7565 58.1907 76.7446 58.5946C76.7208 59.3968 76.5357 60.4524 76.2555 61.5847C75.6914 63.8637 74.8128 66.1735 74.3909 66.9205C73.6849 68.1701 72.1326 68.5831 70.9327 67.875C69.733 67.1669 69.3075 65.5868 70.0132 64.3372Z" fill="white" stroke="#37FF79" stroke-width="2"/>
<path d="M112.269 56.9237C111.674 56.3154 109.721 54.8501 107.713 53.7037C106.716 53.1342 105.767 52.6793 105.016 52.4486C104.638 52.3325 104.363 52.2899 104.184 52.2922C104.175 52.2923 104.167 52.2947 104.159 52.295C104.159 52.3029 104.157 52.3112 104.157 52.3201C104.154 52.5029 104.195 52.7847 104.309 53.1711C104.535 53.9386 104.98 54.9085 105.537 55.9276C106.659 57.9793 108.092 59.9766 108.687 60.5849C109.676 61.5956 111.28 61.5951 112.269 60.5842C113.258 59.5733 113.258 57.9346 112.269 56.9237Z" fill="white" stroke="#37FF79" stroke-width="2"/>
<path d="M101.097 64.3372C100.676 63.5902 99.1586 61.6571 97.5096 60.0183C96.6903 59.2041 95.8877 58.5129 95.2198 58.0908C94.8837 57.8785 94.6283 57.7643 94.4548 57.7192C94.4501 57.718 94.4448 57.7186 94.4404 57.7175C94.4391 57.722 94.436 57.7262 94.4346 57.7311C94.3861 57.9072 94.3542 58.1907 94.3662 58.5946C94.3899 59.3968 94.575 60.4524 94.8553 61.5847C95.4193 63.8637 96.2979 66.1735 96.7198 66.9205C97.4258 68.1701 98.9782 68.5831 100.178 67.875C101.378 67.1669 101.803 65.5868 101.097 64.3372Z" fill="white" stroke="#37FF79" stroke-width="2"/>
<path d="M83.6522 68.7947C83.6522 67.93 84.0208 65.479 84.6473 63.2166C84.9587 62.0924 85.316 61.0835 85.6884 60.3757C85.876 60.0191 86.0414 59.7888 86.1698 59.6609C86.171 59.6597 86.1726 59.6591 86.1737 59.658C86.1748 59.6591 86.1765 59.6597 86.1776 59.6609C86.306 59.7888 86.4724 60.0191 86.66 60.3757C87.0324 61.0835 87.3888 62.0925 87.7001 63.2166C88.3266 65.479 88.6962 67.93 88.6962 68.7947C88.6962 70.2511 87.5459 71.3943 86.1737 71.3943C84.8016 71.3941 83.6522 70.251 83.6522 68.7947Z" fill="white" stroke="#37FF79" stroke-width="2"/>
<line y1="-1" x2="34.3264" y2="-1" transform="matrix(0.205192 0.978722 -0.976845 0.21395 56.8262 90.9921)" stroke="#37FF79" stroke-width="2"/>
<line y1="-1" x2="34.3264" y2="-1" transform="matrix(-0.205192 0.978722 0.976845 0.21395 114.348 90.9921)" stroke="#37FF79" stroke-width="2"/>
<path d="M97.9062 91.12L94.3845 124.716M86.1671 91.12L86.1671 124.716" stroke="#37FF79" stroke-width="2"/>
<line y1="-1" x2="33.78" y2="-1" transform="matrix(0.104255 0.994551 0.994057 -0.10886 73.2609 90.9921)" stroke="#37FF79" stroke-width="2"/>
</g>
<circle cx="8" cy="225" r="8" fill="#37FF79"/>
<circle cx="20" cy="225" r="8" fill="#37FF79"/>
<circle cx="33" cy="225" r="8" fill="#37FF79"/>
<circle cx="47" cy="225" r="8" fill="#37FF79"/>
<circle cx="61" cy="225" r="8" fill="#37FF79"/>
<circle cx="75" cy="225" r="8" fill="#37FF79"/>
<circle cx="89" cy="225" r="8" fill="#37FF79"/>
<circle cx="103" cy="225" r="8" fill="#37FF79"/>
<circle cx="118" cy="225" r="8" fill="#37FF79"/>
<circle cx="133" cy="225" r="8" fill="#37FF79"/>
<circle cx="148" cy="225" r="8" fill="#37FF79"/>
<circle cx="162" cy="225" r="8" fill="#37FF79"/>
<defs>
<clipPath id="clip0_169_120">
<rect width="170" height="225" fill="white"/>
</clipPath>
</defs>
</svg>
